<svg width="400" height="400" viewBox="0 0 400 400" fill="none" xmlns="http://www.w3.org/2000/svg">
<path d="M56.6871 243.789L62 237L161.5 138L228 209.5L271.5 168L340.5 237L343.203 240.768C325.462 303.428 267.842 349.336 199.5 349.336C132.261 349.336 75.4013 304.898 56.6871 243.789Z" fill="#323232"/>
<path fill-rule="evenodd" clip-rule="evenodd" d="M200 400C310.457 400 400 310.457 400 200C400 89.543 310.457 0 200 0C89.543 0 0 89.543 0 200C0 310.457 89.543 400 200 400ZM200 372.145C295.073 372.145 372.145 295.073 372.145 200C372.145 104.927 295.073 27.8552 200 27.8552C104.927 27.8552 27.8551 104.927 27.8551 200C27.8551 295.073 104.927 372.145 200 372.145Z" fill="#323232"/>
</svg>
